# AST/ASF file generated using VICON BodyLanguage
# -----------------------------------------------
:version 1.10
:name VICON
:units
  mass 1.0
  length 0.45
  angle deg
:documentation
   .ast/.asf automatically generated from VICON data using
   VICON BodyBuilder and BodyLanguage model FoxedUp or BRILLIANT.MOD
:root
   order TX TY TZ RX RY RZ
   axis XYZ
   position 0 0 0  
   orientation 0 0 0 
:bonedata
  begin
     id 1 
     name lhipjoint
     direction 0.677091 -0.635792 0.370561 
     length 2.74323 
     axis 0 0 0  XYZ
  end
  begin
     id 2 
     name lfemur
     direction 0.34202 -0.939693 0  
     length 7.44995  
     axis 0 0 20  XYZ
    dof rx ry rz
    limits (-160.0 20.0)
           (-70.0 70.0)
           (-60.0 70.0)
  end
  begin
     id 3 
     name ltibia
     direction 0.34202 -0.939693 0   
     length 7.34467   
     axis 0 0 20   XYZ
    dof rx
    limits (-10.0 170.0)
  end
  begin
     id 4 
     name lfoot
     direction 0.101953 -0.280114 0.954537   
     length 1.72105   
     axis -90 7.62852e-016 20   XYZ
    dof rx rz
    limits (-45.0 90.0)
           (-70.0 20.0)
  end
  begin
     id 5 
     name ltoes
     direction 1.53537e-011 -4.21915e-011 1   
     length 0.865872   
     axis -90 7.62852e-016 20   XYZ
    dof rx
    limits (-90.0 20.0)
  end
  begin
     id 6 
     name rhipjoint
     direction -0.695735 -0.620586 0.361699   
     length 2.81045  
     axis 0 0 0  XYZ 
  end
  begin
     id 7 
     name rfemur
     direction -0.34202 -0.939693 0   
     length 7.29387   
     axis 0 0 -20   XYZ
    dof rx ry rz
    limits (-160.0 20.0)
           (-70.0 70.0)
           (-70.0 60.0)
  end
  begin
     id 8 
     name rtibia
     direction -0.34202 -0.939693 0   
     length 7.44935   
     axis 0 0 -20   XYZ
    dof rx
    limits (-10.0 170.0)
 end
 begin
     id 9 
     name rfoot
     direction -0.104163 -0.286184 0.952496   
     length 1.77731  
     axis -90 -7.62852e-016 -20   XYZ
    dof rx rz
    limits (-45.0 90.0)
           (-20.0 70.0)
  end
  begin
     id 10 
     name rtoes
     direction -1.5355e-011 -4.21888e-011 1   
     length 0.892424   
     axis -90 -7.62852e-016 -20   XYZ
    dof rx
    limits (-90.0 20.0)
  end
  begin
     id 11 
     name lowerback
     direction 0.0100202 0.997226 -0.0737589   
     length 2.16892   
     axis 0 0 0   XYZ
    dof rx ry rz
    limits (-20.0 45.0)
           (-30.0 30.0)
           (-30.0 30.0)
  end
  begin
     id 12 
     name upperback
     direction 0.00432398 0.999988 -0.00215019   
     length 2.17326   
     axis 0 0 0   XYZ
    dof rx ry rz
    limits (-20.0 45.0)
           (-30.0 30.0)
           (-30.0 30.0)
  end
  begin
     id 13 
     name thorax
     direction -0.00195047 0.999485 0.0320434   
     length 2.18139   
     axis 0 0 0   XYZ
    dof rx ry rz
    limits (-20.0 45.0)
           (-30.0 30.0)
           (-30.0 30.0)
  end
  begin
     id 14 
     name lowerneck
     direction 0.00782762 0.986241 0.165128   
     length 1.88415   
     axis 0 0 0   XYZ
    dof rx ry rz
    limits (-20.0 45.0)
           (-30.0 30.0)
           (-30.0 30.0)
  end
  begin
     id 15 
     name upperneck
     direction 0.00988667 0.981098 -0.193258   
     length 1.9242   
     axis 0 0 0   XYZ
    dof rx ry rz
    limits (-20.0 45.0)
           (-30.0 30.0)
           (-30.0 30.0)
  end
  begin
     id 16
     name head
     direction 0.00252199 0.996513 -0.0833958  
     length 1.93887  
     axis 0 0 0   XYZ
    dof rx ry rz
    limits (-20.0 45.0)
           (-30.0 30.0)
           (-30.0 30.0)
  end
  begin
     id 17 
     name lclavicle
     direction 0.929492 0.368193 -0.0218667  
     length 3.5955  
     axis 0 0 0   XYZ
    dof ry rz
    limits (-20.0 10.0)
           (0.0 20.0)
  end
  begin
     id 18 
     name lhumerus
     direction 1 -4.48972e-011 1.41911e-027   
     length 5.2795   
     axis 180 -30 -90   XYZ
    dof rx ry rz
    limits (-60.0 90.0)
           (-90.0 90.0)
           (-90.0 90.0)
  end
  begin
     id 19
     name lradius
     direction 1 -4.48963e-011 7.05772e-027   
     length 3.53504   
     axis 180 -30 -90   XYZ
    dof rx
    limits (-10.0 170.0)
  end
  begin
     id 20
     name lwrist
     direction 1 -4.48957e-011 9.54866e-027   
     length 1.76752   
     axis -7.69462e-015 90 90   XYZ
    dof ry
    limits (-180.0 0.0)
 end
  begin
     id 21 
     name lhand
     direction 1 -4.48979e-011 1.90973e-026   
     length 0.667948   
     axis -1.21857e-014 90 90   XYZ
    dof rx rz
    limits (-90.0 90.0)
           (-45.0 45.0)
  end
  begin
     id 22 
     name lfingers
     direction 1 -4.48987e-011 3.81946e-026   
     length 0.538517   
     axis -2.43714e-014 90 90   XYZ
    dof rx
    limits (0.0 90.0)
  end
  begin
     id 23
     name lthumb
     direction 0.707107 -6.34962e-011 0.707107   
     length 0.773206   
     axis -90 45 2.85299e-015   XYZ
    dof rx rz
    limits (-45.0 45.0)
           (-45.0 45.0)
  end
  begin
     id 24 
     name rclavicle
     direction -0.898763 0.414256 -0.143584   
     length 3.5176  
     axis 0 0 0   XYZ 
    dof ry rz
    limits (-10.0 20.0)
           (-20.0 0.0)
  end
  begin
     id 25 
     name rhumerus
     direction -1 -4.48971e-011 1.129e-027  
     length 5.25035   
     axis 180 30 90   XYZ
    dof rx ry rz
    limits (-90.0 60.0)
           (-90.0 90.0)
           (-90.0 90.0)
  end
  begin
     id 26 
     name rradius
     direction -1 -4.48955e-011 6.34664e-027   
     length 3.58884   
     axis 180 30 90   XYZ
    dof rx
    limits (-10.0 170.0)
  end
  begin
     id 27 
     name rwrist
     direction -1 -4.48966e-011 9.54866e-027   
     length 1.79442   
     axis -7.69462e-015 -90 -90   XYZ
    dof ry
    limits (-180.0 0.0)
  end
  begin
     id 28
     name rhand
     direction -1 -4.48973e-011 1.90973e-026   
     length 0.779235   
     axis -1.21857e-014 -90 -90   XYZ
    dof rx rz
    limits (-90.0 90.0)
           (-45.0 45.0)
  end
  begin
     id 29
     name rfingers
     direction -1 -4.48984e-011 3.81946e-026   
     length 0.62824   
     axis -2.43714e-014 -90 -90   XYZ
    dof rx
    limits (0.0 90.0)
  end
  begin
     id 30
     name rthumb
     direction -0.707107 -6.34968e-011 0.707107   
     length 0.90203   
     axis -90 -45 -2.85299e-015   XYZ
    dof rx rz
    limits (-45.0 45.0)
           (-45.0 45.0)
  end
:hierarchy
  begin
    root lhipjoint rhipjoint lowerback
    lhipjoint lfemur
    lfemur ltibia
    ltibia lfoot
    lfoot ltoes
    rhipjoint rfemur
    rfemur rtibia
    rtibia rfoot
    rfoot rtoes
    lowerback upperback
    upperback thorax
    thorax lowerneck lclavicle rclavicle
    lowerneck upperneck
    upperneck head
    lclavicle lhumerus
    lhumerus lradius
    lradius lwrist
    lwrist lhand lthumb
    lhand lfingers
    rclavicle rhumerus
    rhumerus rradius
    rradius rwrist
    rwrist rhand rthumb
    rhand rfingers
  end

#!OML:ASF I:\Random Stuff\random\construction\7_22_03\Session 2\subj1.ASF
:FULLY-SPECIFIED
:DEGREES
569
root -10.6584 17.686 -5.26351 -345.071 82.9975 -373.738
lowerback 23.4359 2.64349 -5.72137
upperback 8.84091 2.77261 0.36789
thorax -3.56665 1.4978 2.92423
lowerneck -11.6658 2.29933 -2.80423
upperneck 34.164 6.53319 -3.0559
head 13.5241 2.40145 0.317322
rclavicle -7.05686e-015 -6.43565e-015
rhumerus -24.0418 19.3375 -86.5383
rradius 97.2778
rwrist -5.18605
rhand -38.345 26.6856
rfingers 7.12502
rthumb -11.372 -2.98602
lclavicle -7.05686e-015 -6.43565e-015
lhumerus 12.7542 -18.244 57.929
lradius 57.8202
lwrist 6.16583
lhand -38.8209 76.1938
lfingers 7.12502
lthumb -11.831 254.16
rfemur -42.1347 6.6936 8.67416
rtibia 18.0257
rfoot -3.23821 -7.69645
rtoes -25.2704
lfemur -43.4372 -4.45958 -7.13378
ltibia 25.0541
lfoot -16.0864 6.62663
ltoes -16.6674
570
root -10.6556 17.6876 -5.26644 -345.46 82.9253 -374.061
lowerback 23.1581 2.621 -5.7549
upperback 8.82538 2.7444 0.274707
thorax -3.44047 1.48061 2.85881
lowerneck -11.7749 2.32352 -2.6297
upperneck 34.3353 6.55886 -3.07067
head 13.6299 2.42584 0.289147
rclavicle 4.59193e-014 2.64881e-014
rhumerus -24.2136 19.7491 -86.8264
rradius 97.1916
rwrist -4.97889
rhand -38.3847 26.2364
rfingers 7.12502
rthumb -11.4103 -3.43312
lclavicle 4.59193e-014 2.64881e-014
lhumerus 12.6992 -18.1165 58.0332
lradius 57.6554
lwrist 6.03016
lhand -38.9319 75.9898
lfingers 7.12502
lthumb -11.938 254.371
rfemur -41.968 6.74695 8.72246
rtibia 17.8338
rfoot -3.19312 -7.65277
rtoes -25.1207
lfemur -43.3143 -4.56979 -7.02881
ltibia 25.0389
lfoot -16.1479 6.80171
ltoes -16.3808
571
root -10.6521 17.6889 -5.26999 -345.765 82.9238 -374.151
lowerback 23.1104 2.59394 -5.80476
upperback 8.82021 2.6986 0.200828
thorax -3.41611 1.45845 2.82081
lowerneck -11.8119 2.32718 -2.59032
upperneck 34.4116 6.52146 -2.94563
head 13.6656 2.42763 0.327497
rclavicle -1.58034e-014 1.22253e-014
rhumerus -24.3429 20.1612 -87.0779
rradius 97.0496
rwrist -4.71431
rhand -38.087 25.7276
rfingers 7.12502
rthumb -11.1232 -3.95757
lclavicle -1.58034e-014 1.22253e-014
lhumerus 12.7024 -18.0211 58.1377
lradius 57.3959
lwrist 5.82357
lhand -38.917 75.6382
lfingers 7.12502
lthumb -11.9236 254.721
rfemur -41.5947 6.76949 8.76922
rtibia 17.6029
rfoot -3.15211 -7.64035
rtoes -25.1542
lfemur -43.0673 -4.69824 -7.00575
ltibia 25.041
lfoot -16.1913 6.88275
ltoes -16.2517
572
root -10.6502 17.6888 -5.27096 -346.081 82.8913 -374.345
lowerback 22.9882 2.59741 -5.9148
upperback 8.77302 2.67854 0.1406
thorax -3.40566 1.44684 2.82638
lowerneck -11.8592 2.34947 -2.55214
upperneck 34.4511 6.50397 -2.81842
head 13.6874 2.43845 0.369711
rclavicle 2.18663e-014 -9.83984e-015
rhumerus -24.4218 20.3788 -87.2808
rradius 96.9798
rwrist -4.74386
rhand -37.2072 25.1045
rfingers 7.12502
rthumb -10.2745 -4.6245
lclavicle 2.18663e-014 -9.83984e-015
lhumerus 12.7413 -18.0034 58.2051
lradius 57.0737
lwrist 5.65755
lhand -38.9597 75.5593
lfingers 7.12502
lthumb -11.9648 254.803
rfemur -41.3202 6.79708 8.82401
rtibia 17.3302
rfoot -3.09432 -7.63555
rtoes -25.5612
lfemur -42.9276 -4.79409 -6.93875
ltibia 25.0674
lfoot -16.2302 6.95988
ltoes -16.2983
573
root -10.6489 17.6904 -5.27087 -346.851 82.7916 -375.016
lowerback 22.8004 2.63519 -5.99377
upperback 8.73354 2.71287 0.0832524
thorax -3.3585 1.46064 2.8056
lowerneck -11.9823 2.35993 -2.50786
upperneck 34.5285 6.48564 -2.71811
head 13.7447 2.44409 0.402572
rclavicle 1.60022e-014 2.5842e-014
rhumerus -24.5054 20.4182 -87.4689
rradius 97.0577
rwrist -5.07634
rhand -36.0179 24.3495
rfingers 7.12502
rthumb -9.12706 -5.43303
lclavicle 1.60022e-014 2.5842e-014
lhumerus 12.7949 -18.063 58.2134
lradius 56.7862
lwrist 5.56725
lhand -38.9908 75.5205
lfingers 7.12502
lthumb -11.9948 254.843
rfemur -41.0518 6.9067 8.93331
rtibia 16.9888
rfoot -2.9676 -7.64276
rtoes -26.1261
lfemur -42.8005 -4.81767 -6.81254
ltibia 25.1272
lfoot -16.2683 7.03713
ltoes -16.4678
574
root -10.6494 17.6926 -5.27186 -347.862 82.7346 -375.906
lowerback 22.6523 2.66618 -6.02368
upperback 8.69071 2.74759 0.0448231
thorax -3.33418 1.47588 2.77606
lowerneck -12.0353 2.36075 -2.47264
upperneck 34.5777 6.45776 -2.63635
head 13.7747 2.44512 0.426514
rclavicle 2.22639e-014 -2.06736e-014
rhumerus -24.6438 20.385 -87.655
rradius 97.113
rwrist -5.09761
rhand -34.8396 23.5677
rfingers 7.12502
rthumb -7.98993 -6.26126
lclavicle 2.22639e-014 -2.06736e-014
lhumerus 12.8421 -18.2264 58.1805
lradius 56.5636
lwrist 5.49792
lhand -38.9272 75.736
lfingers 7.12502
lthumb -11.9334 254.624
rfemur -40.7148 7.07671 9.02927
rtibia 16.5728
rfoot -2.7898 -7.72997
rtoes -26.3426
lfemur -42.6863 -4.78405 -6.71031
ltibia 25.2305
lfoot -16.2734 7.05042
ltoes -16.7976
575
root -10.651 17.6921 -5.27361 -349.101 82.722 -377.023
lowerback 22.5695 2.66519 -6.03571
upperback 8.61048 2.73816 0.0172872
thorax -3.3792 1.47148 2.75645
lowerneck -12.0071 2.4063 -2.3833
upperneck 34.5874 6.48479 -2.59006
head 13.7727 2.47431 0.432659
rclavicle 2.18663e-014 4.05521e-014
rhumerus -24.7854 20.3161 -87.8613
rradius 97.0964
rwrist -4.5223
rhand -33.7835 22.8394
rfingers 7.12502
rthumb -6.97059 -7.02578
lclavicle 2.18663e-014 4.05521e-014
lhumerus 12.8554 -18.4285 58.0994
lradius 56.3028
lwrist 5.48417
lhand -38.9264 75.9606
lfingers 7.12502
lthumb -11.9326 254.4
rfemur -40.3455 7.22867 9.14025
rtibia 16.0979
rfoot -2.61224 -7.82194
rtoes -26.1722
lfemur -42.6034 -4.76531 -6.57408
ltibia 25.3649
lfoot -16.2744 7.03478
ltoes -17.0186
